Coordinates
version=1
nRows=10
nColumns=33
inDegrees=yes

Units are S.I. units (second, meters, Newtons, ...)
Angles are in degrees.

endheader
time	ground_thorax_rot_x	ground_thorax_rot_y	ground_thorax_rot_z	ground_thorax_tx	ground_thorax_ty	ground_thorax_tz	clav_prot_r	clav_elev_r	scapula_abduction_r	scapula_elevation_r	scapula_upward_rot_r	scapula_winging_r	shoulder_elv_r	plane_of_elev_r	axial_rot_r	elbow_flexion_r	pro_sup_r	wrist_flex_r	wrist_dev_r	clav_prot_l	clav_elev_l	scapula_abduction_l	scapula_elevation_l	scapula_upward_rot_l	scapula_winging_l	shoulder_elv_l	plane_of_elev_l	axial_rot_l	elbow_flexion_l	pro_sup_l	wrist_flex_l	wrist_dev_l
      3.73000000	      0.73878414	      9.54984130	     -0.11060159	     -0.18798584	      0.99942351	      0.01254853	    -21.48918425	    -12.83725784	    -29.55090270	     -7.88945147	      6.08659935	      4.68137932	     54.75031406	    -39.00140824	     37.58576291	     89.14843024	     13.22898989	      5.55351263	      6.05790696	     -3.03573475	     -4.03251479	      2.27277337	     -3.49143597	     -3.21279735	     -1.01587626	     48.59858847	    -39.05626738	    -16.84679207	     87.24167584	     17.40907120	     -2.43162116	    -14.03902537
      3.74000000	      0.68921608	      9.54829160	     -0.20088186	     -0.18806738	      0.99985813	      0.01241252	    -21.42701290	    -13.29398333	    -29.38476206	     -8.31186932	      6.07717484	      4.93673926	     54.21022108	    -38.12442108	     36.84969812	     88.19493258	     12.91329107	      4.85458485	      6.52061148	     -2.99342913	     -4.24749682	      2.13177156	     -3.27392372	     -3.16363032	     -1.02655326	     48.60061484	    -38.26178055	    -16.45097097	     87.20087787	     17.14249686	     -1.90923608	    -13.41038352
      3.75000000	      0.65027935	      9.69831349	     -0.19708973	     -0.18832536	      0.99950303	      0.01242807	    -21.34166959	    -13.30219128	    -29.28013309	     -8.28779165	      6.00624666	      4.95580639	     53.34193300	    -36.91559840	     35.64768392	     87.33896860	     11.95330150	      3.35624562	      7.96957847	     -2.82492763	     -4.21109642	      1.85268804	     -3.32792760	     -3.20538171	     -0.95243912	     48.77222570	    -37.17369769	    -16.35775801	     87.30478922	     16.40285718	     -0.25687497	    -11.79412961
      3.76000000	      0.60421071	      9.67452148	     -0.15794640	     -0.18847939	      0.99976301	      0.01237454	    -21.24729988	    -13.64301136	    -29.09121005	     -8.59634111	      5.98073595	      5.16224132	     52.79877614	    -35.96964285	     34.94649106	     86.21610624	     11.55599248	      2.53834247	      8.66843518	     -2.73090871	     -4.38318414	      1.67560188	     -3.19536546	     -3.26808884	     -0.96051590	     48.80290533	    -36.27743801	    -15.95449034	     87.12918425	     15.98405663	      0.51380818	    -10.90805629
      3.77000000	      0.60538288	      9.83457328	      0.11091439	     -0.18885027	      0.99925205	      0.01241504	    -21.11483765	    -13.47714878	    -28.94247073	     -8.40239310	      5.89642111	      5.09615548	     52.09898943	    -34.76898153	     33.94762918	     85.18413291	     10.60892486	      1.15146523	     10.26669349	     -2.47903879	     -4.32315753	      1.36515641	     -3.38568061	     -3.59101528	     -0.91047230	     49.08317162	    -35.07771182	    -15.92863334	     87.03882616	     15.04389196	      2.40676716	     -9.06781008
      3.78000000	      0.57957653	      9.76755643	      0.07950162	     -0.18890217	      0.99972157	      0.01233495	    -21.00682014	    -13.99227273	    -28.71471110	     -8.86827506	      5.85630879	      5.40149640	     51.65127567	    -33.86294350	     33.32315321	     83.83572307	     10.44105255	      0.59542130	     10.62871122	     -2.39692278	     -4.60486554	      1.18647123	     -3.15204121	     -3.65203862	     -0.94251405	     49.09861958	    -34.22429187	    -15.49039083	     86.61724680	     14.78487055	      2.80782256	     -8.49633603
      3.79000000	      0.53903282	      9.94705543	      0.20767534	     -0.18922872	      0.99912550	      0.01238203	    -20.87711609	    -13.84157984	    -28.60565835	     -8.66264974	      5.69787685	      5.35328325	     50.87312998	    -32.45435704	     32.20914023	     82.47566281	      9.47435645	     -0.66503349	     12.28767484	     -2.15825762	     -4.56102560	      0.91482524	     -3.34685495	     -4.02270329	     -0.91305640	     49.46624026	    -32.75884652	    -15.37940787	     86.34174837	     13.76486034	      4.68597095	     -6.66086604
      3.80000000	      0.52714299	     10.00263592	      0.22542552	     -0.18939862	      0.99909696	      0.01234788	    -20.74657236	    -14.05237745	    -28.43181864	     -8.80831926	      5.56650205	      5.50584598	     50.33780024	    -31.25386537	     31.38428752	     80.93031273	      8.93235403	     -1.45664138	     13.20671893	     -1.97163607	     -4.76223946	      0.71120520	     -3.34013843	     -4.45478933	     -0.96995833	     49.81095256	    -31.44280144	    -15.01759933	     85.86180543	     13.03335767	      5.85715923	     -5.35060067
      3.81000000	      0.46396454	      9.89871227	      0.18323190	     -0.18945176	      0.99946928	      0.01227451	    -20.58692626	    -14.57901217	    -28.13241074	     -9.27604952	      5.50399101	      5.82677755	     49.89468331	    -30.27796639	     30.82209072	     79.21487366	      8.76129656	     -2.00150536	     13.61955015	     -1.85433862	     -5.03609783	      0.48590807	     -3.12759731	     -4.54873214	     -0.99122264	     49.88234247	    -30.51011690	    -14.58733468	     85.23208509	     12.77445610	      6.26251020	     -4.76655040
      3.82000000	      0.41815183	     10.07145165	      0.37201874	     -0.18972460	      0.99889976	      0.01224517	    -20.43806738	    -14.43947184	    -28.00121288	     -9.07106198	      5.32167591	      5.78898773	     49.20174700	    -28.84989275	     29.83941563	     77.41229888	      7.79392321	     -2.93390663	     15.20044467	     -1.60187962	     -5.00212729	      0.23430713	     -3.36833478	     -5.05179078	     -0.98478231	     50.28919444	    -28.89621028	    -14.43920834	     84.58351771	     11.81213912	      8.03334807	     -3.06964452
